:SAMPLES-PER-SECOND 30
:FULLY-SPECIFIED
:DEGREES
56
root  -1.32848 40.263 -1.45296 -166.498 -86.2609 164.063
RightUpLeg  -4.21171 -6.05358 -9.22319
RightLeg  19.3841 0.247856 -0.188742
RightFoot  -7.94025 -0.286527 7.62459
RightToes  -4.65663e-010 0 -3.6325e-017
Spine  2.06985 1.03468 0.81699
Spine1  9.39605 1.41474 -2.44142
HEad  10.792 -0.282103 -1.80709
LeftShoulder1  6.47124 -9.13162 -44.5866
LeftArm  -21.0085 18.1169 -27.2448
LeftForeArm  21.6423 -15.4922 -2.56622
LeftHand  -0.244104 0.0205437 5.32207
RightShoulder  4.92154 7.609 38.2331
RightArm  -17.2256 -14.6863 29.7615
RightForeArm  7.8289 17.4482 4.25666
RightHand  -0.695571 0.79703 -13.1473
LeftUpLeg  0.824376 6.66694 -1.78447
LeftLeg  12.8833 12.9683 -1.1748
LeftFoot  -13.1742 0.114535 2.21717
LeftToes  -7.27628e-011 -1.6005e-012 -1.37987e-011
57
root  -1.43851 40.1146 -1.16315 -163.799 -85.667 160.352
RightUpLeg  -7.45477 -2.8664 -9.54857
RightLeg  27.0944 -4.0483 -2.48932
RightFoot  -5.80583 -0.465989 8.89507
RightToes  -4.65663e-010 0 -3.6325e-017
Spine  3.78092 1.21416 0.312555
Spine1  9.32742 1.62059 -2.68878
HEad  10.8892 -0.0939504 -1.61299
LeftShoulder1  6.7149 -9.26834 -45.8147
LeftArm  -21.0322 19.0634 -30.9506
LeftForeArm  22.6559 -14.5069 -2.48996
LeftHand  -0.244104 0.0205437 5.32207
RightShoulder  5.11528 7.80334 39.1431
RightArm  -17.7717 -14.7322 33.9543
RightForeArm  10.2309 15.3133 4.1846
RightHand  -0.653258 0.606446 -12.7383
LeftUpLeg  1.74021 7.08118 -2.51458
LeftLeg  13.7688 13.1766 -1.03625
LeftFoot  -14.3057 0.147707 2.38811
LeftToes  -7.27628e-011 -1.6005e-012 -1.37987e-011
58
root  -1.62679 40.0585 -0.862466 -166.596 -85.2623 162.288
RightUpLeg  -10.9787 -0.978419 -9.12229
RightLeg  34.557 -7.11081 -5.4612
RightFoot  -2.00615 -0.569402 6.8994
RightToes  -4.65663e-010 0 -3.6325e-017
Spine  4.85301 1.22626 0.588186
Spine1  9.86529 1.73873 -2.92804
HEad  10.7677 0.254905 -1.92171
LeftShoulder1  6.9885 -9.48416 -46.9209
LeftArm  -21.14 20.0325 -34.0262
LeftForeArm  22.2311 -12.914 -2.41005
LeftHand  -0.244104 0.0205437 5.32207
RightShoulder  5.30149 8.01002 39.9086
RightArm  -17.0905 -14.7387 37.2511
RightForeArm  12.0916 13.4213 4.32188
RightHand  -0.567753 0.045162 -12.1598
LeftUpLeg  3.00276 7.24233 -2.90373
LeftLeg  13.7726 13.5767 -0.926655
LeftFoot  -14.9238 0.172855 2.66132
LeftToes  -7.27628e-011 -1.6005e-012 -1.37987e-011
59
root  -1.91758 40.0399 -0.573253 -171.848 -85.1097 167.155
RightUpLeg  -14.414 0.0390211 -8.01712
RightLeg  39.9568 -7.5197 -6.93711
RightFoot  0.727105 -0.397273 3.74688
RightToes  -4.65663e-010 0 -3.6325e-017
Spine  4.94475 1.18682 1.35307
Spine1  10.7988 1.84581 -3.16796
HEad  10.9526 0.412738 -2.54053
LeftShoulder1  7.24601 -9.74325 -47.7167
LeftArm  -20.2722 20.7355 -36.3084
LeftForeArm  20.9366 -10.1949 -2.53751
LeftHand  -0.244104 0.0205437 5.32207
RightShoulder  5.48449 8.21775 40.614
RightArm  -14.2354 -15.3789 38.9791
RightForeArm  13.7733 12.9439 4.75631
RightHand  -0.369895 -1.2159 -10.1012
LeftUpLeg  4.04312 7.27222 -2.97616
LeftLeg  13.4841 13.88 -0.88841
LeftFoot  -15.4024 0.197317 2.95549
LeftToes  -7.27628e-011 -1.6005e-012 -1.37987e-011
60
root  -2.28976 40.0263 -0.308425 -178.147 -85.0658 173.528
RightUpLeg  -17.2989 0.345498 -6.47023
RightLeg  41.9925 -5.79505 -5.85524
RightFoot  1.22659 -0.315533 2.93729
RightToes  -4.65663e-010 0 -3.6325e-017
Spine  4.57642 1.14552 2.20131
Spine1  11.4708 1.92423 -3.37877
HEad  11.4905 0.389063 -2.96004
LeftShoulder1  7.40647 -9.9386 -48.0709
LeftArm  -18.6825 21.4303 -37.7435
LeftForeArm  20.7233 -7.1955 -2.81831
LeftHand  -0.244104 0.0205437 5.32207
RightShoulder  5.61699 8.34805 41.1823
RightArm  -10.5417 -16.6481 39.2537
RightForeArm  14.7153 13.8405 5.16002
RightHand  -0.182879 -2.56724 -7.14719
LeftUpLeg  4.75096 7.12057 -2.86641
LeftLeg  13.1436 14.1803 -0.92712
LeftFoot  -15.966 0.222861 3.14438
LeftToes  -7.27628e-011 -1.6005e-012 -1.37987e-011
61
root  -2.71517 40.0165 -0.0689485 174.799 -85.2015 -179.158
RightUpLeg  -19.2661 -0.244698 -4.56732
RightLeg  40.5351 -4.10794 -4.04317
RightFoot  0.881038 -0.470331 4.44447
RightToes  -4.65663e-010 0 -3.6325e-017
Spine  4.34764 0.938123 2.70412
Spine1  11.6158 1.7151 -3.30286
HEad  11.9199 0.533827 -2.92612
LeftShoulder1  7.50226 -10.0869 -48.1634
LeftArm  -17.4299 22.5597 -38.2814
LeftForeArm  22.2772 -5.3006 -3.01694
LeftHand  -0.244104 0.0205437 5.32207
RightShoulder  5.66144 8.37124 41.4462
RightArm  -7.98453 -17.8451 38.7436
RightForeArm  14.4305 14.7721 5.30859
RightHand  -0.115693 -3.23596 -5.57442
LeftUpLeg  5.33523 6.77467 -2.67625
LeftLeg  12.8095 14.4045 -0.955313
LeftFoot  -16.5634 0.246744 3.2286
LeftToes  -7.27628e-011 -1.6005e-012 -1.37987e-011
62
root  -3.18456 40.0079 0.146456 166.019 -85.5827 -170.119
RightUpLeg  -20.2845 -1.81229 -2.21173
RightLeg  36.2763 -4.12049 -3.47565
RightFoot  0.762268 -0.575507 5.47058
RightToes  -4.65663e-010 0 -3.6325e-017
Spine  4.35044 0.509627 2.63531
Spine1  11.5547 1.09549 -2.65057
HEad  11.8134 0.923986 -2.59107
LeftShoulder1  7.61292 -10.262 -48.2548
LeftArm  -16.7442 24.1007 -37.9512
LeftForeArm  24.1728 -4.9895 -3.13609
LeftHand  -0.244104 0.0205437 5.32207
RightShoulder  5.60871 8.29879 41.3009
RightArm  -6.97016 -18.3872 37.9522
RightForeArm  13.8643 14.8614 5.40469
RightHand  -0.136442 -3.16677 -6.37491
LeftUpLeg  5.95271 6.48218 -2.37451
LeftLeg  12.5619 14.2541 -0.946542
LeftFoot  -17.1131 0.268955 3.29503
LeftToes  -7.27628e-011 -1.6005e-012 -1.37987e-011
63
root  -3.70319 39.9772 0.336468 155.969 -86.0039 -159.824
RightUpLeg  -20.6113 -4.08922 0.479505
RightLeg  30.1407 -5.20213 -3.48357
RightFoot  0.374416 -0.539191 5.27649
RightToes  -4.65663e-010 0 -3.6325e-017
Spine  4.4394 0.0703744 2.07276
Spine1  11.5875 0.321932 -1.51181
HEad  11.1986 1.21598 -2.10678
LeftShoulder1  7.72954 -10.4435 -48.3598
LeftArm  -15.9618 25.5356 -36.942
LeftForeArm  25.0891 -5.64058 -3.38781
LeftHand  -0.244104 0.0205437 5.32207
RightShoulder  5.50147 8.17535 40.9104
RightArm  -6.51518 -18.2724 36.8795
RightForeArm  13.7907 14.3252 5.55196
RightHand  -0.196669 -2.74755 -8.18408
LeftUpLeg  6.63925 6.41338 -1.99588
LeftLeg  12.4184 13.765 -0.995728
LeftFoot  -17.7479 0.293421 3.33754
LeftToes  -7.27628e-011 -1.6005e-012 -1.37987e-011
64
root  -4.28463 39.8988 0.503074 147.63 -86.374 -151.234
RightUpLeg  -20.5274 -7.40992 3.29451
RightLeg  22.9307 -4.76143 -2.55303
RightFoot  -0.333922 -0.56047 5.79082
RightToes  -4.65663e-010 0 -3.6325e-017
Spine  4.54728 -0.221099 1.20967
Spine1  11.6373 -0.318018 -0.312919
HEad  10.4176 1.13245 -1.40563
LeftShoulder1  7.77641 -10.5572 -48.26
LeftArm  -14.9339 26.4632 -35.5304
LeftForeArm  25.4324 -6.44411 -3.73505
LeftHand  -0.244104 0.0205437 5.32207
RightShoulder  5.42241 8.09343 40.5819
RightArm  -6.43318 -17.8376 35.4403
RightForeArm  13.9013 13.4284 5.73939
RightHand  -0.248557 -2.40967 -9.3739
LeftUpLeg  7.41309 6.41151 -1.77091
LeftLeg  12.3169 13.2535 -1.15203
LeftFoot  -18.6439 0.321694 3.28631
LeftToes  -7.27628e-011 -1.6005e-012 -1.37987e-011
65
root  -4.94134 39.7877 0.660562 140.518 -86.8559 -143.874
RightUpLeg  -20.2278 -11.1185 5.75314
RightLeg  15.7211 -2.9536 -0.580715
RightFoot  -0.351772 -0.668616 6.91274
RightToes  -4.65663e-010 0 -3.6325e-017
Spine  4.63624 -0.41945 0.346037
Spine1  11.5993 -0.793302 0.654721
HEad  9.73787 0.684765 -0.493123
LeftShoulder1  7.73844 -10.6075 -47.8492
LeftArm  -14.13 26.8465 -33.9058
LeftForeArm  25.8297 -7.05684 -3.94318
LeftHand  -0.244104 0.0205437 5.32207
RightShoulder  5.40179 8.09506 40.4078
RightArm  -7.20167 -17.3865 33.8664
RightForeArm  13.6852 12.1819 5.89787
RightHand  -0.264067 -2.35518 -9.80132
LeftUpLeg  8.36522 6.27104 -1.80661
LeftLeg  12.0716 12.828 -1.37037
LeftFoot  -19.5891 0.347741 3.18973
LeftToes  -7.27628e-011 -1.6005e-012 -1.37987e-011
66
root  -5.67879 39.6579 0.825868 130.874 -87.4469 -134.027
RightUpLeg  -19.7046 -9.9101 5.90761
RightLeg  9.95592 -6.07708 2.2522
RightFoot  0.38695 -0.683966 6.68352
RightToes  -4.65663e-010 0 -3.6325e-017
Spine  4.67897 -0.554255 -0.213061
Spine1  11.6039 -1.12042 1.30647
HEad  9.16444 -0.0925519 0.39199
LeftShoulder1  7.67803 -10.6447 -47.3439
LeftArm  -13.6715 26.5849 -32.0481
LeftForeArm  25.917 -7.42512 -3.98524
LeftHand  -0.244104 0.0205437 5.32207
RightShoulder  5.3759 8.08229 40.2449
RightArm  -8.44356 -16.9658 32.4311
RightForeArm  13.3174 10.7869 5.92641
RightHand  -0.260527 -2.48371 -10.0733
LeftUpLeg  9.52462 6.09345 -1.97124
LeftLeg  11.7704 12.3561 -1.56695
LeftFoot  -20.3719 0.367735 3.1062
LeftToes  -7.27628e-011 -1.6005e-012 -1.37987e-011
67
root  -6.50375 39.4845 1.01137 114.501 -87.995 -117.547
RightUpLeg  -19.4278 -6.37289 5.1272
RightLeg  6.56301 -10.8652 4.38553
RightFoot  0.777664 -0.632147 5.99689
RightToes  -4.65663e-010 0 -3.6325e-017
Spine  4.70123 -0.609088 -0.330114
Spine1  11.7684 -1.27723 1.62452
HEad  8.57304 -1.19443 1.07851
LeftShoulder1  7.6338 -10.6535 -47.0364
LeftArm  -13.2786 25.4255 -29.9551
LeftForeArm  25.3244 -7.52942 -4.01122
LeftHand  -0.244104 0.0205437 5.32207
RightShoulder  5.29309 7.97025 39.9902
RightArm  -9.30936 -16.4466 31.142
RightForeArm  13.2179 9.50387 5.85044
RightHand  -0.275546 -2.42478 -10.4712
LeftUpLeg  10.8747 6.10157 -2.12306
LeftLeg  11.6668 11.6489 -1.72061
LeftFoot  -21.2556 0.386806 2.98833
LeftToes  -7.27628e-011 -1.6005e-012 -1.37987e-011
68
root  -7.42861 39.261 1.2214 82.0234 -88.1905 -85.0095
RightUpLeg  -19.5858 -5.51909 5.25238
RightLeg  6.11869 -11.6235 4.61059
RightFoot  0.701964 -0.674159 6.41423
RightToes  -4.65663e-010 0 -3.6325e-017
Spine  4.61659 -0.765581 -0.0450905
Spine1  11.9994 -1.48499 1.76716
HEad  7.96582 -2.47083 1.63477
LeftShoulder1  7.58248 -10.6001 -46.8937
LeftArm  -13.0339 23.5773 -27.973
LeftForeArm  24.4946 -7.55015 -4.03688
LeftHand  -0.244104 0.0205437 5.32207
RightShoulder  5.19578 7.84914 39.644
RightArm  -9.62434 -15.9054 29.9734
RightForeArm  13.1682 8.35671 5.76439
RightHand  -0.325983 -2.01631 -10.9998
LeftUpLeg  12.3897 6.27402 -2.14302
LeftLeg  11.6948 10.3976 -1.81219
LeftFoot  -22.4263 0.418843 2.9243
LeftToes  -7.27628e-011 -1.6005e-012 -1.37987e-011
